<?xml version="1.0" encoding="utf-8"?>
<!-- Generator: Adobe Illustrator 19.1.0, SVG Export Plug-In . SVG Version: 6.00 Build 0)  -->
<!DOCTYPE svg PUBLIC "-//W3C//DTD SVG 1.1//EN" "http://www.w3.org/Graphics/SVG/1.1/DTD/svg11.dtd">
<svg version="1.1" id="Layer_1" xmlns="http://www.w3.org/2000/svg" xmlns:xlink="http://www.w3.org/1999/xlink" x="0px" y="0px"
	 viewBox="0 0 249.8 249.8" enable-background="new 0 0 249.8 249.8" xml:space="preserve">
<path fill="#0082BF" d="M180.7,194.8c-0.9,0-2-0.7-3.4-2.1c-23.7-23.9-47.5-47.7-71.3-71.6l-2.8-2.8c-0.4-0.4-0.7-0.7-1.3-1.1
	c-0.3-0.2-0.5-0.5-0.9-0.7l-1.5-1.2l-1.2,1.5c-1.6,2.1-3.3,4.1-5,6.1c-3.6,4.4-7.4,9-10.8,13.7c-5.3,7.5-10.4,15.3-15.3,22.8
	l-2.9,4.4c-1.5,2.3-2.4,3.4-3.9,3.4c-0.2,0-0.4,0-0.6-0.1c-1.7-0.3-2.4-1.3-3.2-4.3c-3-12.2-1.4-25,4.8-38.2
	c3-6.3,6.8-12.3,10.5-18.2c1.6-2.6,3.3-5.2,4.9-7.8c0.3-0.5,0.7-1,1.2-1.7c0.3-0.4,0.6-0.7,0.9-1.2l1-1.3l-1.2-1.1
	c-0.7-0.6-1.3-1.2-2-1.8c-1.5-1.4-2.9-2.6-4.3-4c-2-2.1-2-3.5,0-5.5c3.2-3.3,6.7-6.6,10.2-9.9c0.9-0.9,1.7-1.3,2.5-1.3
	c0.7,0,1.6,0.5,2.6,1.4c1.5,1.4,2.8,3,4,4.4c0.5,0.6,1,1.1,1.4,1.6l1,1.2l1.3-0.8c2.7-1.7,5.3-3.3,7.9-4.9
	c5.6-3.5,10.9-6.8,16.3-9.8c9.9-5.5,20.6-8.4,31.7-8.7c0.2,0,0.5,0,0.7,0c3.1,0,6.3,0.5,9.4,1.1c0.7,0.1,1.3,0.2,2,0.3
	c2.7,0.4,3.3,1.9,3.4,2.9c0.3,1.7-0.5,2.6-2.8,4.2l-1.2,0.8c-11.3,7.8-23,15.9-34.3,24.1c-2.8,2-5.4,4.4-8.1,6.9
	c-1.3,1.2-2.7,2.5-4.3,3.8l-1.6,1.4l1.6,1.4c1.3,1.2,2.6,2.3,3.8,3.4c2.6,2.3,5.1,4.5,7.4,6.8c16.3,16.3,32.9,32.9,48.9,49L192,177
	c3.4,3.4,3.4,4.4,0,7.9l-0.9,0.9c-2.3,2.3-4.6,4.6-6.9,6.9C182.6,194.1,181.5,194.8,180.7,194.8z M104.9,110l76.1,76.1l5.2-5
	L110,104.9L104.9,110z M146.2,62.4c-8.1,1.3-15.8,3.4-23.4,7.1c-9.9,4.8-19,11.3-27,18.8c-13.3,12.4-24.8,28.1-30.4,45.7
	c-1.6,5.2-2.7,10.5-2.7,16c0,0.7,0.4,2.9,0,3.4l3.4-4.9c20.8-32.3,47-59.6,81.4-82l7.6-5.3C152,61.6,149.1,61.9,146.2,62.4z
	 M78.9,85l5.6,5l5.4-5.7l-5.2-6.3L78.9,85z"/>
</svg>
